<?xml version="1.0" encoding="UTF-8"?>
<svg version="1.1" viewBox="0 0 1600 1600" width="1280" height="1280" xmlns="http://www.w3.org/2000/svg">
<path transform="translate(0)" d="m0 0h1600v1600h-1600v-1600z" fill="#FAFCFE"/>
<path transform="translate(886 628)" d="m0 0c1.98 0.00411 1.98 0.00411 3.99 0.0083 12.4 0.0969 26.2 0.229 37.8 5.3 1.56 0.476 3.12 0.935 4.69 1.38 35.8 10.7 67.9 35.1 90.3 64.6 0.95 1.21 1.9 2.42 2.85 3.63 6.75 8.69 12.5 17.7 17.9 27.3 1.33 2.3 2.73 4.55 4.13 6.8 3.55 5.9 6.33 12.1 9.09 18.4 0.523 1.19 1.05 2.37 1.59 3.6 5.01 11.5 9.81 23.1 12.4 35.5 2.79 5.08 11.6 6.62 16.8 8.45 0.851 0.304 1.7 0.607 2.58 0.92 0.846 0.296 1.69 0.592 2.56 0.896 0.753 0.264 1.51 0.527 2.28 0.799 9.11 2.71 17.5 3.07 26.9 2.97 2.54-0.0258 5.08-0.0386 7.62-0.0483 5.38-0.0227 10.8-0.0613 16.1-0.102 6.26-0.0472 12.5-0.0879 18.8-0.112 2.5-0.013 5-0.038 7.5-0.0634 1.53-0.00726 3.06-0.014 4.58-0.02 0.695-0.0103 1.39-0.0207 2.11-0.0313 3.63-8.02e-4 5.04 0.148 8.16 2.23 0.372 3.02 0.372 3.02 0.363 6.88 4.99e-4 0.686 9.97e-4 1.37 0.00151 2.08-0.00234 1.46-0.0121 2.91-0.0286 4.37-0.0233 2.2-0.0206 4.4-0.0139 6.6-0.0183 10.4-0.593 18.9-6.01 28-0.352 0.596-0.703 1.19-1.07 1.81-2.7 4.51-5.65 8.81-8.7 13.1-4.41 5.92-4.41 5.92-5.3 13.1 0.247 1.01 0.495 2.02 0.75 3.06-2.31 0.33-4.62 0.66-7 1 0.66 2.97 1.32 5.94 2 9-2.31 0.99-4.62 1.98-7 3 0.143 0.913 0.285 1.83 0.432 2.77-0.143 1.07-0.285 2.13-0.432 3.23-3.02 1.9-3.02 1.9-4.91 2.78-4.01 1.86-8.12 3.89-9.88 8.14-1.13 5.51-0.771 11.1-0.516 16.7 0.0307 1.66 0.0548 3.33 0.0723 4.99 0.0387 3.25 0.103 6.5 0.181 9.75 0.0811 4.36-0.0149 8.68-0.269 13-0.0674 1.16-0.135 2.32-0.204 3.51-0.798 5.29-3.26 8.92-6.47 13.1-0.737 0.981-1.47 1.96-2.23 2.97-1.66 2.18-3.34 4.35-5.03 6.5-3.92 5.01-7.64 10.2-11.4 15.3-1.16 1.59-1.16 1.59-2.35 3.21-0.837 1.2-0.837 1.2-1.69 2.43-0.648 0.775-0.648 0.775-1.31 1.57h-2c-0.66 1.32-1.32 2.64-2 4-4.84-0.469-7.21-1.59-10.8-4.81-4.75-4.08-9.67-7.74-14.8-11.3-5.93-4.13-11.7-8.34-17.4-12.9-0.99-0.743-1.98-1.48-3-2.25-3.74-3.13-6.58-7.08-9.61-10.9-3.02-3.62-6.32-6.85-9.74-10.1-1.65-1.78-1.65-1.78-1.65-3.78-1.65-0.66-3.3-1.32-5-2-1.02 2.91-1.95 5.81-2.7 8.81-0.245 0.99-0.49 1.98-0.742 3-0.338 1.43-0.338 1.43-0.684 2.89-0.29 0.757-0.58 1.51-0.879 2.29-3.45 1.15-3.94 0.884-7.14-0.477-0.817-0.339-1.63-0.678-2.48-1.03-0.869-0.37-1.74-0.74-2.63-1.12-7.57-3.15-15.1-5.91-23-8.27-2.77-1.11-2.77-1.11-4.77-4.11 1.15-3.03 1.15-3.03 2.94-6.5 1.09-2.13 2.13-4.29 3.06-6.5-0.33-0.99-0.66-1.98-1-3-4.88-0.0939-9.49 0.239-14.3 0.938-5.89 0.825-11.8 1.53-17.7 2.06-0.158 3.05-0.158 3.05 1 6 0.66 0.66 1.32 1.32 2 2 1.01 1.66 2.01 3.33 3 5 3.95 6.29 7.72 11.8 14 16v2c0.639 0.268 1.28 0.536 1.94 0.812 2.06 1.19 2.06 1.19 3.06 4.19 1.65 0.702 3.32 1.37 5 2 0.33 0.66 0.66 1.32 1 2-39.6 0.151-79.3 0.296-119 0.433-4.71 0.0163-9.42 0.0326-14.1 0.0489-0.937 0.00325-1.87 0.00651-2.84 0.00986-15.1 0.0524-30.1 0.109-45.2 0.167-15.5 0.0598-31 0.115-46.6 0.166-8.68 0.0287-17.4 0.0594-26.1 0.0955-38.8 0.16-77.6 0.0928-116-0.921 0.33-0.66 0.66-1.32 1-2h2v-2l1.62-0.559c26.4-9.76 44.8-26.9 57.1-52 5.79-12.8 8.07-26 8.66-40 0.066-1.44 0.133-2.89 0.2-4.33 0.0349-0.751 0.0697-1.5 0.106-2.28 2.36-49.3 11.5-96.7 34.3-141 0.955-1.86 1.89-3.74 2.82-5.61 8.92-17.6 20.3-35 34.6-48.8 1.63-1.63 3.08-3.33 4.55-5.11 2.71-3.22 5.68-5.91 8.88-8.63 2.33-2 4.56-4.09 6.8-6.18 15.9-14.2 34.1-24.3 54-31.8 5.04-1.91 10.1-3.89 15-6.03 3.19-1.17 6.01-0.881 9.41-0.881 1.9-0.485 1.9-0.485 3.84-0.98 6.42-1.48 12.8-1.36 19.4-1.33z" fill="#EDAE4F"/>
<path transform="translate(974,731)" d="m0 0c2.97 1.12 5.33 2.22 8 4v2c0.571 0.0877 1.14 0.175 1.73 0.266 2.91 0.941 4.36 2.38 6.58 4.48 4.3 3.99 8.68 7.86 13.1 11.7 4.47 3.85 8.87 7.74 13.2 11.8 13.4 12.2 27.3 21.1 44.4 27.1 3.01 1.07 5.98 2.23 8.96 3.39 7.51 2.91 15 5.72 22.6 8.44 0.724 0.264 1.45 0.529 2.2 0.801 0.712 0.254 1.42 0.508 2.16 0.77 0.63 0.227 1.26 0.454 1.91 0.688 5.24 1.53 10.4 1.75 15.8 1.7 0.747-0.00307 1.49-0.00613 2.26-0.00929 1.61-0.00712 3.22-0.0165 4.84-0.0279 2.55-0.0175 5.1-0.0277 7.65-0.0359 7.25-0.0244 14.5-0.0602 21.7-0.105 4.44-0.0267 8.88-0.0438 13.3-0.0549 1.69-0.00621 3.38-0.0162 5.08-0.0301 2.36-0.0192 4.72-0.0261 7.08-0.0303 0.7-0.00876 1.4-0.0175 2.12-0.0266 3.64 0.00738 5.07 0.156 8.19 2.24 0.372 3.02 0.372 3.02 0.363 6.88 4.99e-4 0.686 9.97e-4 1.37 0.00151 2.08-0.00234 1.46-0.0121 2.91-0.0286 4.37-0.0233 2.2-0.0206 4.4-0.0139 6.6-0.0183 10.4-0.593 18.9-6.01 28-0.352 0.596-0.703 1.19-1.07 1.81-2.7 4.51-5.65 8.81-8.7 13.1-4.41 5.92-4.41 5.92-5.3 13.1 0.247 1.01 0.495 2.02 0.75 3.06-2.31 0.33-4.62 0.66-7 1 0.66 2.97 1.32 5.94 2 9-2.31 0.99-4.62 1.98-7 3 0.143 0.913 0.285 1.83 0.432 2.77-0.143 1.07-0.285 2.13-0.432 3.23-3.02 1.9-3.02 1.9-4.91 2.78-4.01 1.86-8.12 3.89-9.88 8.14-1.13 5.51-0.771 11.1-0.516 16.7 0.0307 1.66 0.0548 3.33 0.0723 4.99 0.0387 3.25 0.103 6.5 0.181 9.75 0.0811 4.36-0.0149 8.68-0.269 13-0.101 1.74-0.101 1.74-0.204 3.51-0.798 5.29-3.26 8.92-6.47 13.1-0.737 0.981-1.47 1.96-2.23 2.97-1.66 2.18-3.34 4.35-5.03 6.5-3.92 5.01-7.64 10.2-11.4 15.3-1.16 1.59-1.16 1.59-2.35 3.21-0.837 1.2-0.837 1.2-1.69 2.43-0.432 0.517-0.864 1.03-1.31 1.57h-2c-0.66 1.32-1.32 2.64-2 4-4.84-0.469-7.21-1.59-10.8-4.81-4.75-4.08-9.67-7.74-14.8-11.3-5.93-4.13-11.7-8.34-17.4-12.9-0.99-0.743-1.98-1.48-3-2.25-3.74-3.13-6.58-7.08-9.61-10.9-3.02-3.62-6.32-6.85-9.74-10.1-1.65-1.78-1.65-1.78-1.65-3.78-1.65-0.66-3.3-1.32-5-2-1.02 2.91-1.95 5.81-2.7 8.81-0.245 0.99-0.49 1.98-0.742 3-0.338 1.43-0.338 1.43-0.684 2.89l-0.879 2.29c-3.45 1.15-3.94 0.884-7.14-0.477-0.817-0.339-1.63-0.678-2.48-1.03-0.869-0.37-1.74-0.74-2.63-1.12-7.57-3.15-15.1-5.91-23-8.27-2.77-1.11-2.77-1.11-4.77-4.11 1.15-3.03 1.15-3.03 2.94-6.5 1.09-2.13 2.13-4.29 3.06-6.5-0.33-0.99-0.66-1.98-1-3-4.84-0.093-9.4 0.235-14.2 0.938-10.9 1.6-21.4 2.23-32.4 1.36-1.15-0.0855-2.3-0.171-3.48-0.259-2.41-0.181-4.81-0.367-7.22-0.558-3.69-0.29-7.38-0.561-11.1-0.83-2.35-0.179-4.7-0.359-7.04-0.541-1.1-0.0803-2.2-0.161-3.34-0.243-1.02-0.0832-2.04-0.166-3.1-0.252-1.34-0.104-1.34-0.104-2.72-0.211-2.48-0.411-4.24-1.16-6.41-2.4 0.265-4.85 0.532-9.7 0.8-14.6 0.0905-1.64 0.181-3.29 0.271-4.93 0.26-4.75 0.525-9.49 0.799-14.2 0.0861-1.5 0.17-3 0.253-4.5 0.114-2.07 0.235-4.13 0.358-6.2 0.0673-1.17 0.135-2.35 0.204-3.56 0.916-8.74 7.26-14.9 12.6-21.6 2.87-3.58 5.47-7.3 8.05-11.1 1.87-2.63 3.85-5.12 5.88-7.62 0.661-0.829 1.32-1.66 2-2.51 1.06-1.32 2.15-2.62 3.27-3.88 1.73-2.11 2.58-3.73 2.39-6.47-0.491-2.35-1.13-4.59-1.86-6.88-0.377-1.35-0.752-2.71-1.12-4.06-0.289-0.969-0.577-1.94-0.875-2.94l4-2c-0.526-1.33-0.526-1.33-1.06-2.69-0.958-3.38-1.06-5.03 0.0625-8.31 0.66-0.33 1.32-0.66 2-1-0.495-4.46-0.495-4.46-1-9l4-2c0.743-2.56 1.21-4.82 1.56-7.44 0.117-0.745 0.235-1.49 0.355-2.26 0.38-2.43 0.734-4.87 1.08-7.31 0.371-2.57 0.745-5.13 1.13-7.69 0.242-1.63 0.474-3.25 0.694-4.88 0.948-6.47 3.1-11.4 7.24-16.5 3.49-4.37 6.91-8.8 10.3-13.2 2.79-3.64 5.68-7.18 8.64-10.7z" fill="#E37A26"/>
<path transform="translate(721 628)" d="m0 0c2.07 0.0184 4.14 0.0205 6.21 0.0203 10.1 0.0449 10.1 0.0449 13.5 1.19 1.69 0.151 3.37 0.273 5.06 0.375 4.78 0.396 8.95 1.39 13.5 2.88 2.4 0.731 4.73 1.2 7.2 1.62 4.35 0.838 8.55 2.04 12.8 3.44 1.78 0.582 1.78 0.582 3.59 1.18 2.91 1.51 2.91 1.51 4.31 4.18 0.196 0.77 0.392 1.54 0.594 2.33-0.548 0.317-1.1 0.634-1.66 0.961-5.44 3.2-10.8 6.56-16 10-0.65 0.429-1.3 0.859-1.97 1.3-3.38 2.27-6.49 4.59-9.47 7.39-2.88 2.31-2.88 2.31-5.75 2.31-2.12-1-2.12-1-3.12-3-2.32-0.407-4.66-0.744-7-1-0.231 0.531-0.461 1.06-0.699 1.61-2.58 5.59-5.12 8.72-10.7 11.6-6.64 1.9-12.5 0.342-18.8-2.06-2.68-1.69-4.67-3.93-6.88-6.19-4.36-3.82-7.51-6.09-13.4-5.88-6.82 1.68-10.1 5.11-13.7 10.9-1.15 2.25-1.15 2.25-0.883 6 2.06 1.43 2.06 1.43 5 2 1.83-0.782 1.83-0.782 3.69-1.94 4.19-2.34 7.35-2.46 12.1-1.73 4.94 1.45 7.15 5.21 9.64 9.41 2.12 4.59 2.1 8.44 0.625 13.2-2.78 5.93-7.37 8.97-13 12 2.68 3.57 5.43 6.32 9 9-0.471 6.02-3.16 10.5-6 15.7-1.01 1.89-2.02 3.79-3.02 5.68-0.504 0.948-1.01 1.9-1.53 2.87-7.8 14.8-13.6 29.8-18.5 45.8-0.312 1.01-0.624 2.02-0.946 3.06-5.04 16.4-8.37 33-11.1 49.9-0.165 0.992-0.33 1.98-0.5 3-1.88 11.3-2.68 22.2-2.52 33.7 0.259 22-4.37 40.3-20 56.5-4.15 4.06-8.86 6.99-13.9 9.77-0.996 0.596-0.996 0.596-2.01 1.2-9.53 5.35-20.3 6.28-31 5.8-1.27 0-2.54 0.0316-3.81 0.105-15.1 0.567-27.1-7.72-38.2-17.1-1.55-1.14-1.55-1.14-3.12-2.31-11.3-10.6-18.7-26.1-19.3-41.6-0.0128-2.13-0.00405-4.26 0.0234-6.39 0.0141-1.74 0.0141-1.74 0.0286-3.52 1-59.8 17.9-119 51.3-169 0.437-0.655 0.874-1.31 1.32-1.98 5.14-7.64 10.7-14.6 17.1-21.3 2.33-2.47 4.57-4.99 6.79-7.56 3.65-4.12 7.57-7.7 11.8-11.2 0.737-0.614 1.47-1.23 2.23-1.86 19.5-15.9 40.6-28.6 64.3-37.1 0.845-0.307 1.69-0.614 2.56-0.93 4.53-1.57 8.05-2.24 12.9-2.13 1.13-0.326 2.26-0.652 3.42-0.988 5.84-1.57 11.8-1.27 17.8-1.22z" fill="#ECAD4F"/>
<path transform="translate(681,630)" d="m0 0c2.78 2.03 2.78 2.03 5 4-0.969 0.34-1.94 0.681-2.94 1.03-10.1 3.62-19.6 7.92-29.1 13-0.616 0.328-1.23 0.655-1.87 0.993-8.62 4.62-16.5 9.92-24.1 16-0.949 0.755-1.9 1.51-2.88 2.29-10.5 7.97-10.5 7.97-19.1 17.7h-2c-0.269 0.602-0.539 1.2-0.816 1.82-1.19 2.19-2.27 3.34-4.12 4.99-21.6 21.1-36.3 52.5-47.1 80.2-0.259 0.649-0.519 1.3-0.786 1.97-14.7 37.1-31.2 97.4-17.5 136 2.13 4.84 4.41 9.4 7.26 13.9 0.478 0.757 0.956 1.51 1.45 2.29 8.53 12.1 23.9 22.7 38.3 26.4 2.17 0.278 4.23 0.394 6.42 0.355 3.12-0.0504 6.22-0.0907 9.34 0.043 16.4 0.461 30.8-4.89 43.1-15.6 3.98-3.85 7.42-7.85 10.4-12.5 0.44-0.651 0.879-1.3 1.33-1.97 7.13-11.5 8.93-25.6 8.54-38.9-1.22-49.6 13.3-102 37-145 0.466-0.859 0.931-1.72 1.41-2.6 0.902-1.65 1.82-3.29 2.75-4.92 2.4-4.3 2.4-4.3 2.97-9.11-1.48-3.27-4.18-4.91-6.96-7.12-1.19-2.15-1.19-2.15-2-4 0.687-0.375 1.37-0.75 2.08-1.14 0.901-0.512 1.8-1.02 2.73-1.55 0.893-0.499 1.79-0.998 2.71-1.51 3.38-2.45 4.94-5 6.13-8.98 0.804-6.03-0.291-9.79-3.65-14.8-0.804-1.21-0.804-1.21-1.62-2.44-3.87-2.55-7.8-2.9-12.4-2.56-2.45 0.935-4.69 2.06-7.02 3.27-1.98 0.727-1.98 0.727-5.05-0.523-0.639-0.577-1.28-1.15-1.94-1.75 0.299-5.98 2.92-9.84 7-14 3.83-2.85 6.84-4 11.6-4 6.79 2.01 11.3 6.46 15.9 11.8 2.06 1.71 3.88 1.87 6.5 2.25 0.619 0.186 1.24 0.371 1.88 0.562 5.82 1.2 10.2 0.514 15.3-2.29 3.88-2.76 5.84-7.04 7.79-11.3 3.38 0.312 3.38 0.312 7 1 0.66 0.99 1.32 1.98 2 3 4.21-0.527 6.33-1.79 9.5-4.56 4.87-4.06 10-7.34 15.4-10.6 2.15-1.3 4.27-2.67 6.34-4.09 2.73-1.77 2.73-1.77 4.73-1.77-0.33-1.32-0.66-2.64-1-4 0.66 0.33 1.32 0.66 2 1 5.65 0.589 9.44-0.763 14.6-3.12 2.63-0.948 4.65-1.03 7.43-0.875v-2c11.7-3.11 22.8-5.43 35-5 0.33 0.99 0.66 1.98 1 3-5.72 2.68-11.5 5.21-17.3 7.55-7.32 2.93-14 6.11-20.7 10.4-0.878 0.532-1.76 1.06-2.66 1.61-10.1 6.15-18.8 13.7-27.3 21.7-2 1.65-2 1.65-4 1.65-0.33 0.99-0.66 1.98-1 3-1.41 1.18-2.83 2.35-4.26 3.49-2.59 2.25-4.75 4.81-6.96 7.43-1.12 1.31-2.26 2.61-3.42 3.88-14.9 16.3-26.1 36.3-35.4 56.2-0.324 0.687-0.648 1.37-0.982 2.08-18.7 39.8-26.7 81.4-28.9 125-1.37 27.6-5 52.7-23.1 74.8-0.784 1.01-1.57 2.02-2.38 3.06-8.3 9.29-18.5 15.9-29.4 21.8-0.721 0.394-1.44 0.787-2.19 1.19-4.03 2.12-7.46 3.48-12.1 3.93v2c-1.26 1.6-1.26 1.6-3 3-2.92 0.28-5.59 0.377-8.5 0.312-0.847-0.012-1.69-0.024-2.57-0.0364-32.4-0.705-63-7.56-86.7-31-19.1-21.8-28.7-45-27.2-74.3 0.168-0.782 0.335-1.56 0.508-2.37 0.646-3.45 0.548-6.74 0.492-10.3-0.111-7.04-0.111-7.04 1-10.4 0.157-2 0.276-4 0.375-6 2.45-35.4 13.8-70 28.6-102 0.34-0.737 0.68-1.47 1.03-2.23 7.8-16.7 17.3-32.5 29-46.8 0.687-0.878 1.37-1.76 2.08-2.66 4.05-5.17 8.32-10.1 12.8-14.9 2.03-2.24 3.97-4.52 5.92-6.83 2.51-2.89 4.86-4.73 8.25-6.56 1.35-1.31 2.69-2.65 4-4 12.2-10.1 26.2-19 40.9-25.1 2.65-1.11 5.24-2.32 7.84-3.52 3.72-1.7 7.39-3.19 11.3-4.38 0.906-0.313 1.81-0.626 2.75-0.949 8.16-2.63 18.6-6.01 27.3-4.05z" fill="#F1E1B0"/>
<path transform="translate(750,458)" d="m0 0c5.31 4.27 8.41 9.62 11.6 15.5 2.45 4.43 5.05 8.77 7.63 13.1 0.572 0.966 1.14 1.93 1.73 2.93 3.57 6.03 7.17 12 10.8 18.1 3.11 5.17 6.17 10.4 9.21 15.6 2.43 4.15 4.88 8.29 7.33 12.4 0.57 0.961 1.14 1.92 1.73 2.91 1.1 1.86 2.21 3.72 3.32 5.58 2.71 4.57 5.38 9.17 7.99 13.8 0.493 0.873 0.986 1.75 1.49 2.65 1.8 3.85 1.9 6.29 1.15 10.5-2.78 2.97-5.71 3.93-9.76 4.15-1.12 0.00984-2.24 0.0197-3.39 0.0298-1.27 0.0128-2.54 0.0257-3.84 0.0389-1.39 0.00817-2.77 0.0156-4.16 0.0224-0.698 0.00408-1.4 0.00815-2.12 0.0124-3.69 0.0208-7.39 0.0352-11.1 0.0445-3.81 0.0111-7.63 0.0455-11.4 0.0852-2.93 0.0261-5.87 0.0345-8.8 0.0381-1.41 0.00487-2.81 0.0165-4.22 0.035-1.97 0.0243-3.93 0.021-5.9 0.0165-1.12 0.00587-2.24 0.0117-3.39 0.0178-3.56-0.601-4.67-1.71-6.89-4.49-1.04-1.76-2.02-3.55-2.94-5.38-1.02-1.88-2.04-3.75-3.06-5.62-0.354-0.665-0.709-1.33-1.07-2.02-1.14-1.93-1.14-1.93-3.93-3.98-8.61-1.58-17.8-1.24-26.5-1.31-1.25-0.029-2.5-0.058-3.78-0.0879-1.2-0.00838-2.39-0.0168-3.62-0.0254-1.61-0.0219-1.61-0.0219-3.26-0.0442-3.53 0.586-4.62 1.72-6.83 4.47-1.24 1.94-2.43 3.93-3.56 5.94-0.579 1.02-1.16 2.04-1.75 3.09-1.09 1.93-2.18 3.86-3.27 5.79-1.41 2.18-1.41 2.18-3.41 3.18-3.06 0.239-6.12 0.185-9.19 0.188-0.839 0.0122-1.68 0.0245-2.54 0.0371-5.15 0.0121-9.42-0.456-14.3-2.22-1.62-1.62-1.62-1.62-2-4 1.58-5.71 4.3-10.4 7.41-15.4 1.56-2.56 2.99-5.16 4.41-7.8 2.43-4.51 5.02-8.88 7.69-13.2 2.67-4.38 5.16-8.75 7.38-13.4 2.95-6.12 6.51-11.8 10.1-17.5 2.58-4.17 4.97-8.33 7.09-12.8 2.39-4.98 5.14-9.64 8.06-14.3 0.42-0.675 0.841-1.35 1.27-2.05 5.27-8.33 10-13.3 19.6-16.5 10.5-2.07 23.1-2.58 33 2z" fill="#863224"/>
<path transform="translate(576 1023)" d="m0 0c1.06-0.00387 2.13-0.00773 3.22-0.0117 5.03 0.00628 9.77 0.126 14.7 1.14 1.33 0.114 2.67 0.218 4 0.312 9.75 1.09 20 3.37 27 10.7 3.09 4.44 3.78 8.69 3 14-1.07 3.52-2.37 6.37-5 9-6.36 0.505-11.3-0.535-17.4-2.32-4.55-1.2-8.05-1.33-12.4 0.508-2.52 2.08-3.27 3.71-4.19 6.81 5.98 8.97 15.9 12.2 25.4 16.6 9.37 4.44 17.2 9.78 21.6 19.4 2.1 8.41 2.23 17.3-2 25-0.296 0.652-0.593 1.3-0.898 1.98-5.06 9.3-17.2 14-26.7 17.3-27.4 7.87-59.8 7.68-85.4-6.07-6.56-3.91-6.56-3.91-7.6-6.98-1.48-8.28-0.71-15.1 3.86-22.1 2.9-1.76 5.51-1.59 8.75-1.06 4.93 1.39 9.81 2.96 14.4 5.16 3.32 1.09 5.91 0.818 9.37 0.469 1.16-0.111 2.32-0.222 3.52-0.336 0.88-0.0954 1.76-0.191 2.67-0.289 1.12-4.32 1.12-4.32-0.438-8.25-0.773-0.866-0.773-0.866-1.56-1.75v-2c-0.853-0.416-0.853-0.416-1.72-0.84-6.65-3.39-12.9-7.49-19.1-11.7-1.06-0.712-2.12-1.42-3.21-2.16-3.25-2.56-5.44-5.1-7.98-8.34-0.557-0.598-1.11-1.2-1.69-1.81-3.66-6.1-4.15-14.3-3.31-21.2 2.74-10.8 9.94-18.3 19.3-24 12.2-5.9 26.4-7.17 39.8-7.12z" fill="#863224"/>
<path transform="translate(1051,1060)" d="m0 0c0.663 0.329 1.33 0.657 2.01 0.996 9.04 4.97 13.3 12.6 16.3 22.2 1.66 6.4 1.94 12.3 1.98 18.9 0.0206 0.982 0.0412 1.96 0.0625 2.98 0.06 11.4-2.57 22.4-10.2 31.1-9.65 9.34-19.6 10.4-32.6 10.4-8.3-0.249-13.5-2.15-20.5-6.62-1.33-0.365-2.66-0.703-4-1-0.0198 0.579-0.0396 1.16-0.0601 1.75-1.02 28.3-1.02 28.3-4.94 32.2-5.55 2.04-12.1 1.19-17.9 1.19-2.26 0.00217-4.51 0.0203-6.77 0.0393-7.31 0.0296-14.3 0.0305-21.3-2.22-1.5-2.38-1.5-2.38-2-5-0.172-0.631-0.345-1.26-0.522-1.91-0.482-2.11-0.609-3.94-0.618-6.1-0.00571-0.788-0.0114-1.58-0.0173-2.39-0.00112-0.855-0.00224-1.71-0.00339-2.59-0.00496-0.908-0.00993-1.82-0.015-2.75-0.0146-3-0.0214-6-0.0269-9-0.00575-2.09-0.0115-4.17-0.0173-6.26-0.0105-4.38-0.0164-8.75-0.0198-13.1-0.00549-5.6-0.0295-11.2-0.058-16.8-0.0186-4.31-0.0238-8.62-0.0254-12.9-0.00303-2.07-0.011-4.13-0.0242-6.2-0.0171-2.89-0.0152-5.78-0.00869-8.67-0.00921-0.851-0.0184-1.7-0.0279-2.58 0.0406-5.78 1.1-9.9 4.88-14.5 5.03-3.98 14-2.58 20.2-2.65 1.73-0.0266 3.47-0.0675 5.2-0.123 2.51-0.0793 5.01-0.112 7.52-0.136 0.769-0.033 1.54-0.066 2.33-0.1 3.44 0.0127 5.44 0.128 8.11 2.43 1.5 1.74 2.86 3.49 4.13 5.39 4.09-0.604 7.13-1.98 10.8-3.94 11.7-5.9 26.2-8.2 38.2-2.06z" fill="#863224"/>
<path transform="translate(903 453)" d="m0 0c0.833-0.00129 1.67-0.00258 2.52-0.00391 1.31 0.0058 1.31 0.0058 2.64 0.0117 0.864-0.00387 1.73-0.00773 2.62-0.0117 0.835 0.00129 1.67 0.00258 2.53 0.00391 0.762 0.00113 1.52 0.00226 2.31 0.00342 2.18 0.13 4.07 0.557 6.17 1.13 1.37 0.124 2.75 0.226 4.12 0.312 5.14 0.492 10.1 1.44 15.2 2.5 1.17 0.23 1.17 0.23 2.35 0.464 5.45 1.19 9.24 2.83 12.6 7.51 1.04 3.24 1.05 6.25 1.09 9.65 0.0284 1.3 0.0567 2.6 0.0859 3.93-0.531 4.18-1.34 5.83-4.46 8.63-2.4 0.523-2.4 0.523-4.94 0.375-0.834-0.0335-1.67-0.067-2.53-0.102-2.54-0.273-2.54-0.273-4.83-0.777-9.48-1.74-19.5-1.89-27.7 3.5-1.49 0.495-1.49 0.495-3 1-1.13 1.81-1.13 1.81-2 4-0.342 0.721-0.683 1.44-1.04 2.18-4.78 10.5-5.46 20-1.41 31 2.84 5.58 6.86 9.47 12.7 11.7 7.44 2.32 14.4 2.42 22.1 2.19 2.29-0.06 4.58-0.111 6.87-0.152 0.998-0.0296 2-0.0591 3.03-0.0896 2.78 0.187 4.33 0.697 6.67 2.18 2.82 3.64 2.29 8.11 2.25 12.5 0.00773 0.759 0.0155 1.52 0.0234 2.3-0.0254 7.24-0.0254 7.24-2.27 10.2-18.7 13.3-58.7 11.2-79.7 8-14.4-3.35-28-10.2-37.3-22-2.16-3.55-3.65-7.08-5-11-0.574-1.25-1.16-2.5-1.75-3.75-4.3-11.2-3.45-26.8-0.25-38.2 0.195-0.791 0.389-1.58 0.59-2.4 4.29-16.1 12.8-27.2 26.9-35.7 4.64-2.64 9.42-4.41 14.5-5.94 0.819-0.285 1.64-0.57 2.48-0.863 5.68-1.91 11.1-2.6 17.1-2.93 3.14-0.268 5.43-1.34 8.68-1.34z" fill="#863224"/>
<path transform="translate(551 456)" d="m0 0c0.887-0.00258 1.77-0.00516 2.69-0.00781 2.31 0.133 2.31 0.133 4.31 1.13 1.95 0.0811 3.9 0.0966 5.85 0.0818 1.23-0.00653 2.46-0.0131 3.72-0.0198 0.658-0.00574 1.32-0.0115 1.99-0.0174 2.06-0.0174 4.12-0.0277 6.18-0.0359 5.86-0.0245 11.7-0.06 17.6-0.105 3.58-0.0268 7.16-0.0438 10.7-0.0549 1.36-0.0062 2.73-0.0162 4.09-0.0301 1.91-0.0193 3.82-0.0251 5.73-0.0303 1.09-0.00746 2.17-0.0149 3.29-0.0226 2.84 0.235 4.46 0.678 6.82 2.23 2.62 4.37 2.3 9.06 2.25 14 0.00773 0.794 0.0155 1.59 0.0234 2.41-0.0142 4.26-0.154 7.77-2.27 11.6-2.33 1.17-3.83 1.17-6.43 1.25-0.878 0.0329-1.76 0.0657-2.66 0.0996-1.85 0.0609-3.7 0.118-5.55 0.172-1.32 0.0512-1.32 0.0512-2.67 0.104-0.804 0.0251-1.61 0.0501-2.44 0.0759-2.46 0.33-4.08 1.15-6.26 2.3-0.0088 1.35-0.0088 1.35-0.0178 2.72-0.058 8.49-0.13 17-0.218 25.5-0.0446 4.36-0.0839 8.73-0.111 13.1-0.0261 4.21-0.0665 8.43-0.117 12.6-0.0166 1.6-0.0282 3.21-0.0344 4.81-0.00968 2.25-0.0378 4.51-0.07 6.76-0.0111 1.28-0.0222 2.56-0.0336 3.88-0.458 4.15-1.59 6.88-3.4 10.6h-2c-0.495 1.49-0.495 1.49-1 3-5.48 2.16-10.7 2.31-16.5 2.3-0.899 0.00429-1.8 0.00857-2.72 0.013-1.89 0.00572-3.79 0.00626-5.68 0.00191-2.87-0.00315-5.74 0.0203-8.61 0.0457-1.85 0.00227-3.7 0.00298-5.55 0.00195-0.845 0.00921-1.69 0.0184-2.56 0.0279-7.31-0.0557-14-1.53-20.4-5.08-4.71-5.63-3.04-15.8-2.98-22.8 0.0176-2.09 0.0278-4.17 0.0359-6.26 0.0243-5.93 0.06-11.9 0.105-17.8 0.0269-3.64 0.0439-7.28 0.0549-10.9 0.00617-1.38 0.0161-2.76 0.0301-4.13 0.0719-7.16 0.00998-13.6-2.18-20.5-1.06 0.0232-2.12 0.0464-3.22 0.0703-16.1 0.246-16.1 0.246-22.8-3.07-1.32-4.39-1.22-8.95-1.25-13.5-0.0206-0.746-0.0412-1.49-0.0625-2.26-0.0321-4.54 0.232-7.65 3.31-11.2 4.55-2.48 8.91-2.24 13.9-2.16 0.854 0.0052 1.71 0.0104 2.59 0.0158 2.72 0.0178 5.43 0.0489 8.15 0.0819 2.73 0.0276 5.46 0.0523 8.18 0.0712 1.7 0.0123 3.39 0.0299 5.08 0.0533 4.64 0.0396 8.46-1.2 13-1.19z" fill="#863224"/>
<path transform="translate(1041 487)" d="m0 0c0.865 8.06e-4 1.73 0.00161 2.62 0.00244 6.03 0.0579 11.5 0.683 17.4 2.19 1.62 0.273 3.25 0.544 4.88 0.812 10.5 2.14 22.3 6.89 29 15.6 1.53 2.48 2.88 4.96 4.15 7.57 0.491 1 0.491 1 0.992 2.02 4.83 10.5 4.7 25.6 1.11 36.5-5.13 11.4-13.2 17.9-24.7 22.3-10.9 3.78-21.5 4.69-32.9 4.62-2.3-0.0085-4.59 0.0204-6.89 0.052-17.5 0.0843-36.2-3.38-49.6-15.5-3.89-5.24-6.63-10.6-8-17-0.174-0.742-0.348-1.49-0.527-2.25-2.22-12.9-0.171-24.5 6.89-35.4 8.73-12.3 23.2-17.7 37.6-20.3 2.33-0.0215 4.67-0.0258 7 0 3.42-1.71 7.23-1.19 11-1.19z" fill="#863224"/>
<path transform="translate(746 1057)" d="m0 0c1.87-0.00387 1.87-0.00387 3.78-0.00781 9.94 0.355 9.94 0.355 12.7 3.13 1.57 0.596 3.16 1.15 4.75 1.69 5.31 2.07 8.1 4.63 11.2 9.31 0.584 0.837 0.584 0.837 1.18 1.69 5.12 8.05 5.12 17.1 5.09 26.4 0.00191 1.13 0.00383 2.26 0.0058 3.42 0.00135 2.37-0.00229 4.75-0.0107 7.12-0.0108 3.63-5.77e-5 7.26 0.0127 10.9-0.00132 2.31-0.00388 4.63-0.00781 6.94 0.00405 1.08 0.0081 2.17 0.0123 3.28-0.00946 1.52-0.00946 1.52-0.0191 3.07-0.00159 0.886-0.00318 1.77-0.00482 2.68-0.292 2.89-0.848 4.97-2.25 7.51-2.62 1.12-5.21 1.13-8.05 1.16-1.18 0.0144-1.18 0.0144-2.38 0.0291-1.26 0.00637-1.26 0.00637-2.54 0.0129-0.87 0.0057-1.74 0.0114-2.64 0.0173-1.84 0.00943-3.68 0.016-5.51 0.0198-2.81 0.00972-5.61 0.0408-8.42 0.0723-1.79 0.00653-3.58 0.0118-5.37 0.0156-0.837 0.0123-1.67 0.0247-2.54 0.0374-4.63-0.0176-7.92-0.19-11.6-3.37-2.87-4.55-2.28-9.99-2.27-15.2-0.0203-2.02-0.0411-4.03-0.0625-6.05-0.0226-3.17-0.0391-6.34-0.0449-9.51-0.0095-3.07-0.0432-6.13-0.0801-9.19 0.00757-1.42 0.00757-1.42 0.0153-2.87-0.0312-5.24-0.0312-5.24-2.4-9.78-3-1.96-4.63-2.05-8.15-1.41-2.57 2.17-4.49 3.98-6 7-0.133 2.76-0.21 5.5-0.246 8.26-0.033 1.69-0.0662 3.39-0.0996 5.08-0.0473 2.67-0.0917 5.34-0.131 8-0.04 2.58-0.0915 5.15-0.144 7.73-0.00841 0.789-0.0168 1.58-0.0255 2.39-0.119 5.4-0.56 10.6-3.48 15.3-5.62 3.56-12.6 3.48-19 3.38-0.824-0.00862-1.65-0.0172-2.5-0.0261-2.46-0.0355-4.92-0.0927-7.38-0.161-1.07-0.029-1.07-0.029-2.16-0.0586-12.4-0.409-12.4-0.409-16.8-3.94-2.53-4.25-3.38-7.39-3.39-12.3-0.00946-1.23-0.0189-2.46-0.0287-3.72 0.00607-1.32 0.0121-2.63 0.0184-3.99-0.00202-1.38-0.00494-2.76-0.0087-4.14-0.00441-2.89 0.00197-5.78 0.016-8.66 0.017-3.68 0.00729-7.35-0.0107-11-0.0109-2.85-0.00735-5.7 3.83e-4 -8.55 0.00294-2.01-0.00608-4.01-0.0154-6.02 0.0539-7.07 0.192-14.1 3.42-20.6 3.71-2.48 5.75-2.29 10.2-2.38 0.699-0.017 1.4-0.034 2.12-0.0515 2.23-0.0531 4.46-0.0934 6.69-0.132 2.23-0.044 4.46-0.0908 6.69-0.143 2.02-0.0465 4.05-0.084 6.07-0.121 3.25-0.0314 3.25-0.0314 6.23-1.17 3.2 0.142 6.06 0.716 9 2 1.96 2.25 2.81 4.21 4 7 6.07-0.569 10.7-4.41 15.6-7.75 5.19-2.66 11.2-2.39 16.9-2.38z" fill="#863224"/>
<path transform="translate(867 1056)" d="m0 0c1.09-0.00773 2.17-0.0155 3.29-0.0234 5.73 0.0138 10.9 0.412 16.5 1.84 2.31 0.531 4.51 0.446 6.87 0.43 3.45 1.06 6.7 2.55 10 4 0.719 0.289 1.44 0.578 2.18 0.875 6.71 2.92 10.7 7.86 14.6 13.9 4.16 11.4 3.5 23.6 3.45 35.5-0.0108 3.17-1.7e-5 6.34 0.0127 9.51-0.00132 2.03-0.00388 4.05-0.00781 6.08 0.00405 0.943 0.0081 1.89 0.0123 2.86-0.0608 8.5-0.0608 8.5-2.28 12.3-3.15 2.1-3.91 2.25-7.5 2.27-1.36 0.0143-1.36 0.0143-2.75 0.0289-1.47-0.00137-1.47-0.00137-2.96-0.00276-1.01 0.00429-2.01 0.00857-3.05 0.013-2.13 0.00574-4.26 0.00624-6.39 0.00191-3.26-0.00316-6.52 0.0203-9.78 0.0457-2.07 0.00227-4.14 0.00298-6.21 0.00195-1.46 0.0138-1.46 0.0138-2.96 0.0279-0.911-0.00623-1.82-0.0125-2.76-0.0189-0.799 6.29e-4 -1.6 0.00126-2.42 0.00191-2.79-0.474-4.19-1.41-6.21-3.37v-3c-4.02 0.588-6.88 1.89-10.4 3.94-9.32 5.16-18.6 6.63-29.2 4.56-2.23-0.699-4.31-1.54-6.45-2.5-0.844-0.329-1.69-0.657-2.56-0.996-6.64-2.85-10.3-6.49-13.4-13-2.69-8.46-0.959-16.3 3-24 3.71-6.05 10.6-10.2 17-13 1.93-0.262 3.86-0.518 5.8-0.715 2.27-0.294 4.42-0.792 6.64-1.35 5.57-1.29 11.1-1.76 16.6 0.0625 1.99 0 3.98-0.00123 5.96-0.0625 2.14 0.0658 3.98 0.474 6.04 1.06-1.44-7.3-1.44-7.3-6-13-6.88-3.05-13.9-1.92-21 0-2.1 0.858-4.18 1.75-6.25 2.69-5.22 2.29-8.3 3.29-13.8 1.31-2.49-3.77-3.01-6.19-2.94-10.7 1.44-5.08 3.82-6.57 8.12-9.44 3.5-1.94 6.97-2.72 10.9-3.38 2.14-0.376 2.14-0.376 3.92-2.49h7c0.978-0.325 1.96-0.65 2.96-0.984 5.36-1.61 10.9-1.3 16.4-1.27z" fill="#863224"/>
<path transform="translate(1186,809)" d="m0 0c2.48 2.48 1.17 8.55 1.19 12-8.06e-5 0.736-1.61e-4 1.47-2.44e-4 2.23 0.00216 2.21 0.0202 4.42 0.0393 6.63 0.0448 10.5-0.462 18.9-5.91 28.1-0.352 0.596-0.703 1.19-1.07 1.81-2.7 4.51-5.65 8.81-8.7 13.1-4.41 5.92-4.41 5.92-5.3 13.1 0.371 1.52 0.371 1.52 0.75 3.06-3.46 0.495-3.46 0.495-7 1 0.99 4.46 0.99 4.46 2 9-2.31 0.99-4.62 1.98-7 3 0.107 0.909 0.214 1.82 0.324 2.75-0.324 3.25-0.324 3.25-2.55 5.4-0.976 0.589-1.95 1.18-2.96 1.79-0.963 0.607-1.93 1.21-2.92 1.84-3.35 1.41-4.53 1.51-7.89 0.223-2.38-1.74-2.38-1.74-5-4-1.1-0.825-2.2-1.64-3.31-2.45-0.594-0.432-1.19-0.864-1.8-1.31-0.623-0.452-1.25-0.905-1.89-1.37-7.09-5.18-14.1-10.5-21-15.9-1-0.762-2.01-1.52-3.04-2.31-1.43-1.12-1.43-1.12-2.89-2.25-0.834-0.641-1.67-1.28-2.53-1.94-6.98-6.88-11.3-16.2-16-24.7-0.656-1.17-1.31-2.34-1.97-3.51-0.608-1.12-1.22-2.23-1.84-3.38-0.554-1.01-1.11-2.01-1.68-3.05-1.2-3.14-1.07-4.64-0.0764-7.81 0.773-0.182 1.55-0.364 2.34-0.551 1.04-0.251 2.08-0.503 3.16-0.762 1.53-0.365 1.53-0.365 3.09-0.738 2.51-0.7 4.81-1.46 7.22-2.4 4.46-1.72 8.99-2.89 13.6-4.05 5.53-1.39 10.9-2.91 16.3-4.75 3.71-1.25 7.47-2.38 11.2-3.5 0.838-0.253 1.68-0.506 2.54-0.767 5.03-1.51 10.1-2.93 15.1-4.29 1.12-0.303 2.24-0.607 3.4-0.919 2.2-0.591 4.4-1.17 6.6-1.74 5.32-1.43 9.24-2.64 13.3-6.54 4.15-1.42 7.74-0.819 12 0z" fill="#863224"/>
<path transform="translate(974,731)" d="m0 0c2.25 0.438 2.25 0.438 5 2 1.15 2.06 1.97 4.19 2.85 6.38 2.92 6.68 7.38 12.6 11.7 18.5 5.31 7.27 10.3 14.8 15.3 22.3 0.984 1.48 1.97 2.96 2.95 4.44 13.4 20.2 13.4 20.2 18.2 27.8 0.725 1.15 1.45 2.3 2.19 3.44 1.06 1.65 2.09 3.32 3.12 4.99 0.562 0.902 1.12 1.8 1.7 2.73 1.05 2.52 1.05 2.52 1.18 5.16-1.13 2.35-1.13 2.35-4.24 3.91-1.39 0.462-2.79 0.9-4.2 1.32-1.56 0.498-3.13 0.998-4.69 1.5-0.821 0.259-1.64 0.518-2.49 0.785-2.51 0.838-4.94 1.78-7.39 2.78-12.1 4.84-22.2 6.08-35.1 5.06-1.91-0.145-1.91-0.145-3.85-0.293-26.8-2.09-26.8-2.09-37.1-4.71-1.98-6.43-1.98-6.43-4-13l4-2c-0.526-1.33-0.526-1.33-1.06-2.69-0.958-3.38-1.06-5.03 0.0625-8.31 0.99-0.495 0.99-0.495 2-1-0.33-2.97-0.66-5.94-1-9l4-2c0.743-2.56 1.21-4.82 1.56-7.44 0.117-0.745 0.235-1.49 0.355-2.26 0.38-2.43 0.734-4.87 1.08-7.31 0.371-2.57 0.745-5.13 1.13-7.69 0.242-1.63 0.474-3.25 0.694-4.88 0.948-6.47 3.1-11.4 7.24-16.5 3.49-4.37 6.91-8.8 10.3-13.2 2.79-3.64 5.68-7.18 8.64-10.7z" fill="#863224"/>
<path transform="translate(596,880)" d="m0 0c0.688 0.615 0.688 0.615 1.39 1.24 0.92 0.808 0.92 0.808 1.86 1.63 0.603 0.534 1.21 1.07 1.83 1.62 4.42 3.47 7.93 3.93 13.5 3.84 3.54-0.476 5.7-2.16 8.47-4.33 1.33-0.359 2.66-0.702 4-1 0.33-0.66 0.66-1.32 1-2 0.0864 0.557 0.173 1.11 0.262 1.69 1.37 7.45 3.91 13.6 10.2 18.2 5.64 3.23 12.2 3.53 18.6 4.12 1.92 5.39-0.772 10-3 15-8.13 14.9-21.8 26.9-38.1 32-7.44 1.91-16.6 4.01-24 1.23-2.15-1.39-3.59-2.88-5.25-4.83-0.603-0.708-1.21-1.42-1.83-2.14-1.72-2.13-3.33-4.32-4.92-6.54-2.28-3.13-4.42-4.86-7.88-6.69v-2h-2c-1.47-1.83-1.47-1.83-3.06-4.25-0.527-0.789-1.05-1.58-1.6-2.39-3.01-5.3-3.24-11.4-2.34-17.4 1.37-2.43 2.96-4.51 4.66-6.72 2.29-3.91 1.83-7.9 1.34-12.3 1.11 0.0928 2.22 0.186 3.37 0.281 10.6 0.652 10.6 0.652 19.7-4.28 1.35-1.29 2.68-2.62 3.94-4z" fill="#E47B26"/>
<path transform="translate(624 804)" d="m0 0c1.79 1.04 3.53 2.16 5.25 3.31 2.44-0.0368 4.88-0.151 7.31-0.312 6.79-0.258 6.79-0.258 10 1.79 3.68 4.31 3.68 4.31 3.68 7.52 0.681 0.227 1.36 0.454 2.06 0.688 3.73 1.67 6.66 3.87 9.94 6.31-0.66 0.66-1.32 1.32-2 2-0.059 2.21-0.059 2.21 0.312 4.69 0.108 0.898 0.217 1.8 0.328 2.72 0.288 2.07 0.601 4.15 0.922 6.21 0.499 3.85 0.506 7.5 0.438 11.4-0.887 0.247-1.77 0.495-2.69 0.75-3.35 1.02-3.35 1.02-5.45 3.32-4.02 2.71-7.2 2.31-11.9 2.05-6.83-0.619-6.83-0.619-12.9 1.88-0.66 0.99-1.32 1.98-2 3-3.13-0.447-5.87-0.948-8.81-2.12-4.21-1.16-7.95-0.876-12.2 0.125-0.99 0.66-1.98 1.32-3 2-3.57 0.466-5.33 0.47-8.31-1.62-0.887-0.784-1.77-1.57-2.69-2.38-1.52-0.946-3.04-1.88-4.56-2.81-4.42-2.92-6.42-5.28-8.44-10.2-0.694-4.86 0.356-7.91 3-12 4.66-4.73 9.04-8.26 15.9-8.44 3.69 0.0601 5.86 0.478 8.75 2.81 2.38 2.62 2.38 2.62 2.38 4.62 0.99-0.66 1.98-1.32 3-2 2.16-0.587 4.33-1.15 6.5-1.69 4.48-1.21 4.48-1.21 8.02-3.99 1.38-3.17 1.48-5.88 1.48-9.32-0.928 1.24-0.928 1.24-1.88 2.5-0.701 0.825-1.4 1.65-2.12 2.5h-2c-0.495 1.49-0.495 1.49-1 3-5.23 2.62-13.2 1.58-18.6-0.125-3.79-2.92-5.87-6.08-7.31-10.6-0.0412-0.742-0.0825-1.49-0.125-2.25 3.26-3.26 8.01-2.4 12.4-2.48 3.85-0.138 6.91-0.488 10.4-2.1 3.12-1.42 3.12-1.42 5.87-0.734z" fill="#F2E2B1"/>
<path transform="translate(652,726)" d="m0 0c3.19 1.43 5.22 2.97 7 6 0.539 3.1 0.434 5.9 0 9 0.568 0.124 1.14 0.247 1.72 0.375 7.73 2.06 11.7 6.27 15.7 13.1 1.04 4.75 2 9.2-0.652 13.6-4.41 4.83-9.65 7.02-15.8 9-0.0561 1.03-0.0561 1.03-0.113 2.08-0.0657 0.901-0.131 1.8-0.199 2.73-0.087 1.34-0.087 1.34-0.176 2.71-0.584 2.83-1.16 3.83-3.51 5.48-3.93-0.0714-6.27-0.486-9.5-2.75-1.5-2.25-1.5-2.25-1.44-4.75 0.987-2.63 2.03-4.44 3.94-6.5h2c-2.03-4.32-2.03-4.32-5-8-4.11 0.0914-5.71 0.738-8.81 3.5-0.722 0.825-1.44 1.65-2.19 2.5-1.7 1.7-3.8 1.29-6.12 1.38-4.78-0.062-7.77-0.644-11.4-3.75-3.32-3.74-5.03-7.7-6.06-12.6 1.13-5.53 4.2-10.2 8.7-13.6 1.34-0.821 2.71-1.61 4.09-2.35 3.49-2.04 5.06-4.26 6.58-7.95 4.41-8.93 11.7-10.9 21.2-9.12z" fill="#F2E2B1"/>
<path transform="translate(993,943)" d="m0 0c1.18 1.55 1.18 1.55 2 4-0.837 2.59-1.71 4.82-2.88 7.25-0.295 0.65-0.59 1.3-0.895 1.97-0.73 1.6-1.48 3.19-2.23 4.78 7.42 3.01 14.9 5.88 22.4 8.69 1.6 0.604 1.6 0.604 3.23 1.22 1.54 0.577 1.54 0.577 3.11 1.17 1.38 0.52 1.38 0.52 2.79 1.05 2.72 0.997 2.72 0.997 6.5 1.88 1.65-5.94 3.3-11.9 5-18 6.72 3.36 6.72 3.36 9.19 6.44 2.16 2.61 4.34 5.15 6.67 7.61 0.498 0.529 0.996 1.06 1.51 1.6 0.992 1.05 1.99 2.09 2.99 3.13 2.44 2.61 4.25 4.58 4.64 8.21-9.79 3.56-19.8 6.05-29.9 8.49-1.39 0.338-2.78 0.705-4.16 1.1-3.2 0.668-6.23-0.195-9.38-0.844-1.05-0.211-1.05-0.211-2.13-0.426-1.44-0.292-2.89-0.588-4.33-0.889-1.96-0.406-3.93-0.787-5.9-1.17-1.71-0.35-1.71-0.35-3.45-0.707-1.02-0.205-2.03-0.41-3.08-0.621-3.13-1.1-4.48-2.48-6.67-4.94-1.85-1.57-3.72-3.1-5.61-4.63-0.459-0.451-0.918-0.902-1.39-1.37v-2c-0.603-0.269-1.21-0.539-1.83-0.816-9.29-5.06-16.6-18.6-20.2-28.2 2.33-1.16 4.05-1.28 6.65-1.5 1.38-0.124 1.38-0.124 2.8-0.25 0.967-0.0825 1.93-0.165 2.93-0.25 1.9-0.164 3.81-0.33 5.71-0.5 0.846-0.0722 1.69-0.144 2.56-0.219 2.32-0.226 2.32-0.226 4.42-0.809 2.96-0.727 5.89-0.531 8.93-0.473z" fill="#F1E1B0"/>
<path transform="translate(998,942)" d="m0 0c7.4 0.315 13.3 1.88 20 5 1.06 0.492 2.13 0.985 3.23 1.49 8.48 4.07 8.48 4.07 10.8 7.51-0.333 7.04-1.79 13.7-5 20-7.16-2.33-14.2-4.9-21.2-7.56-1.59-0.598-1.59-0.598-3.22-1.21-2.85-1.07-5.69-2.14-8.53-3.23-0.916-0.331-1.83-0.662-2.78-1-2.22-0.996-2.22-0.996-3.22-3 1.07-2.6 2.2-5.1 3.44-7.62 0.338-0.706 0.677-1.41 1.03-2.14 0.839-1.75 1.69-3.49 2.54-5.23h2c0.33-0.99 0.66-1.98 1-3z" fill="#863224"/>
<path transform="translate(653 695)" d="m0 0c5.45 4.16 7.24 9.02 8.2 15.6 0.344 4.99 0.344 4.99-2.19 8.31-0.928 0.701-1.86 1.4-2.81 2.12-0.568 0.852-1.14 1.7-1.72 2.58-2.28 2.42-2.28 2.42-5.73 3.12-1.25 0.0348-2.51 0.0696-3.8 0.105-1.26 0.0477-2.53 0.0954-3.83 0.145-0.964 0.0142-1.93 0.0284-2.92 0.043v-2c-0.598-0.268-1.2-0.536-1.81-0.812-4.84-2.63-6.38-6.01-8.19-11.2-0.801-4.8 0.0525-7.61 2.5-11.7 5.43-7.44 13.6-11.1 22.3-6.33z" fill="#863224"/>
<path transform="translate(701,678)" d="m0 0c4.45 3.19 7.39 7.77 9 13 0.495 5.64-0.933 10.1-4.48 14.5-3.29 3.28-6.53 5.47-11.3 5.57-5.98-1.99-11.4-4.19-15.8-8.75-1.91-4.6-2.36-8.41-1.38-13.3 2.49-5.31 6.4-9.12 11.8-11.4 4.22-1.07 8.06-0.782 12.2 0.438z" fill="#863224"/>
<path transform="translate(736 648)" d="m0 0c4.24 4.44 7.07 9.12 6.93 15.4-1.48 5.35-4.3 9.02-9 12-5.28 2.78-9.97 2.6-15.6 0.938-5.52-3.17-7.72-6.7-9.5-12.8-0.367-5.38 2.13-9.86 5.12-14.2 6.57-5.61 14.9-6.94 22.1-1.4z" fill="#863224"/>
<path transform="translate(677,694)" d="m0 0c0.124 0.592 0.247 1.18 0.375 1.79 1.22 4.68 2.31 7.52 6.5 10.1 2.33 1.26 4.59 2.24 7.06 3.19 1.02 0.433 1.02 0.433 2.06 0.875 1 3 1 3 0.145 4.9-0.44 0.672-0.879 1.34-1.33 2.04-0.427 0.669-0.853 1.34-1.29 2.03-4.36 5.85-4.36 5.85-8.76 6.57-12.3-0.106-12.3-0.106-16.8-4.53-4.71-5.24-5.17-11.2-6-18 0.557-0.255 1.11-0.51 1.69-0.773 3.55-1.88 6.66-4.36 9.88-6.77 2.44-1.46 2.44-1.46 6.44-1.46z" fill="#F1E1B0"/>
<path transform="translate(1044,516)" d="m0 0c3.7 2.94 5.58 5.54 7 10 0.812 8.34 1.06 16.9-4 24-3 2-3 2-6.38 1.94-4.28-1.11-5.87-2.54-8.62-5.94-1.38-4.14-1.22-8.04-1.25-12.4-0.0206-0.851-0.0412-1.7-0.0625-2.58-0.0303-4.87 0.166-8.08 3.31-12 3.16-3.16 5.59-3.72 10-3z" fill="#FAFDFE"/>
<path transform="translate(1018,1088)" d="m0 0c4.72 4.07 5.2 7.63 5.75 13.7 0.389 6.07 0.253 10-2.75 15.3-2.59 2.25-3.97 2.97-7.38 3.06-3.99-1.62-7.01-3.59-9.62-7.06-1.03-3.37-1.1-6.5-1-10 0.00258-0.803 0.00516-1.61 0.00781-2.43 0.292-5.77 1.82-8.59 5.99-12.6 3.47-2.6 5.29-2.04 9 0z" fill="#FAFDFE"/>
<path transform="translate(660,849)" d="m0 0c0.66 0.33 1.32 0.66 2 1-0.00602 2.42-0.0534 4.83-0.125 7.25 0.00387 1.02 0.00387 1.02 0.00781 2.07-0.0781 2.01-0.0781 2.01-0.883 5.68-2.92 2.38-2.92 2.38-6 4-0.722 0.577-1.44 1.15-2.19 1.75-5.2 2.31-11.2 2.19-16.6 0.25-3.42-3.04-6.34-6.47-9.25-10 0.905-2.26 1.66-3.73 3.58-5.27 3.7-1.13 7.27-0.679 11.1-0.484 6.96 0.212 11.4-0.344 17-4.94 0.441-0.433 0.882-0.866 1.34-1.31z" fill="#E47B26"/>
<path transform="translate(705,505)" d="m0 0c2.37 0.16 2.37 0.16 5 1 4.47 5.21 8.58 13.3 10 20-0.715 2.21-0.715 2.21-2 4-6.76 2.76-13.7 3.06-20.6 0.5-1.13-0.495-2.27-0.99-3.44-1.5 1.12-8.12 5.05-18.1 11-24z" fill="#FAFDFE"/>
<path transform="translate(862 1104)" d="m0 0c3.26 1.11 4.59 2.03 6.56 4.88 0.543 5.52-0.259 9.78-2 15-9.46 0.894-9.46 0.894-12.9-1.09-2.55-2.74-3.12-4.79-3.25-8.47 1.62-4.94 5.86-10.6 11.6-10.3z" fill="#FAFDFE"/>
<path transform="translate(607,777)" d="m0 0c3.04 2.22 3.89 3.32 4.5 7.06-0.5 2.94-0.5 2.94-2 4.81-3.72 1.67-6.43 1.45-10.5 1.12-0.99-0.66-1.98-1.32-3-2-0.438-3.38-0.438-3.38 0-7 3.39-4.29 5.72-5.63 11-4z" fill="#F2E2B1"/>
<path transform="translate(1006,890)" d="m0 0c2 2 1.41 5.82 1.56 8.56 0.0432 0.711 0.0864 1.42 0.131 2.15 0.106 1.76 0.207 3.52 0.307 5.28-4.51-2.11-8.39-4.58-12.4-7.56-1.06-0.785-2.12-1.57-3.21-2.38-0.797-0.679-1.59-1.36-2.41-2.06v-2c4.97-2.98 10.5-3.63 16-2z" fill="#863224"/>
<path transform="translate(1059,910)" d="m0 0c3.36 1.43 5.32 3.18 7.69 5.94 0.602 0.69 1.2 1.38 1.82 2.09 1.49 1.97 1.49 1.97 2.49 4.97-7.09 0.0973-14 0.101-21-1 2.03-5.75 4.08-8.39 9-12z" fill="#863224"/>
<path transform="translate(580,846)" d="m0 0c0.812 1.12 0.812 1.12 1.64 2.27 2.5 2.89 4.83 4.49 8.11 6.42 1.78 1.05 3.54 2.14 5.25 3.31v2h2v6c-0.247-0.619-0.495-1.24-0.75-1.88-1.51-2.56-2.55-2.97-5.25-4.12-0.701-0.536-1.4-1.07-2.12-1.62-5.06-2.42-10.6-2.09-15.9-0.438-0.66 0.351-1.32 0.701-2 1.06-0.99 0.495-0.99 0.495-2 1 1.19-5.5 2.54-8.28 7-12 2.31-1.31 2.31-1.31 4-2z" fill="#E47B26"/>
<path transform="translate(849 629)" d="m0 0c0.889 0.0786 1.78 0.157 2.7 0.238 1.08 0.222 1.08 0.222 2.18 0.449 0.33 0.66 0.66 1.32 1 2-3.69 1.18-7.14 1.28-11 1-1.94-1.5-1.94-1.5-3-3 3.14-1.05 4.87-1.01 8.12-0.688z" fill="#FDFDFD"/>
<path transform="translate(681,630)" d="m0 0h10c0.33 0.66 0.66 1.32 1 2-3.67 1.18-7.17 1.07-11 1v-3z" fill="#FDFDFD"/>
</svg>
